<svg xmlns="http://www.w3.org/2000/svg" width="1280" height="384" viewBox="0 0 1280 384">
<defs>
  <linearGradient id="bg" x1="0" y1="0" x2="1" y2="1">
    <stop offset="0" stop-color="#0a1019"/>
    <stop offset="0.55" stop-color="#0c1320"/>
    <stop offset="1" stop-color="#0a0e16"/>
  </linearGradient>
  <radialGradient id="glow" cx="0.5" cy="0.5" r="0.5">
    <stop offset="0" stop-color="#7df0ff" stop-opacity="0.55"/>
    <stop offset="0.4" stop-color="#27c4d6" stop-opacity="0.22"/>
    <stop offset="1" stop-color="#27c4d6" stop-opacity="0"/>
  </radialGradient>
  <radialGradient id="focal" cx="0.5" cy="0.5" r="0.5">
    <stop offset="0" stop-color="#ffffff"/>
    <stop offset="0.35" stop-color="#9af3ff"/>
    <stop offset="1" stop-color="#2dd4bf" stop-opacity="0"/>
  </radialGradient>
  <linearGradient id="ring" x1="0" y1="0" x2="1" y2="1">
    <stop offset="0" stop-color="#5fe3e8"/>
    <stop offset="1" stop-color="#1f7d8a"/>
  </linearGradient>
  <linearGradient id="blade" x1="0" y1="0" x2="1" y2="1">
    <stop offset="0" stop-color="#7df0ff"/>
    <stop offset="1" stop-color="#1f6f74"/>
  </linearGradient>
  <linearGradient id="bladefill" x1="0" y1="0" x2="1" y2="1">
    <stop offset="0" stop-color="#3ec6cf"/>
    <stop offset="1" stop-color="#0c1320"/>
  </linearGradient>
  <linearGradient id="ray" x1="0" y1="0" x2="1" y2="0">
    <stop offset="0" stop-color="#3ec6cf" stop-opacity="0.1"/>
    <stop offset="1" stop-color="#7df0ff" stop-opacity="0.8"/>
  </linearGradient>
  <linearGradient id="beam" x1="0" y1="0" x2="1" y2="0">
    <stop offset="0" stop-color="#7df0ff" stop-opacity="0.6"/>
    <stop offset="1" stop-color="#0c1320" stop-opacity="0"/>
  </linearGradient>
  <linearGradient id="wm" x1="0" y1="0" x2="0" y2="1">
    <stop offset="0" stop-color="#ffffff"/>
    <stop offset="1" stop-color="#9fe9f0"/>
  </linearGradient>
  <filter id="soft" x="-50%" y="-50%" width="200%" height="200%">
    <feGaussianBlur stdDeviation="2.2"/>
  </filter>
</defs>

<rect width="1280" height="384" fill="url(#bg)"/>
<circle cx="912" cy="217" r="1.0" fill="#2a3b52" opacity="0.20"/><circle cx="871" cy="164" r="0.8" fill="#2a3b52" opacity="0.27"/><circle cx="1182" cy="139" r="0.6" fill="#2a3b52" opacity="0.35"/><circle cx="895" cy="94" r="1.0" fill="#2a3b52" opacity="0.23"/><circle cx="634" cy="132" r="0.8" fill="#2a3b52" opacity="0.22"/><circle cx="1255" cy="45" r="0.8" fill="#2a3b52" opacity="0.19"/><circle cx="438" cy="358" r="0.8" fill="#2a3b52" opacity="0.16"/><circle cx="855" cy="294" r="1.0" fill="#2a3b52" opacity="0.35"/><circle cx="1047" cy="131" r="0.8" fill="#2a3b52" opacity="0.30"/><circle cx="742" cy="175" r="0.6" fill="#2a3b52" opacity="0.39"/><circle cx="607" cy="255" r="0.6" fill="#2a3b52" opacity="0.33"/><circle cx="396" cy="222" r="1.0" fill="#2a3b52" opacity="0.36"/><circle cx="364" cy="148" r="1.0" fill="#2a3b52" opacity="0.24"/><circle cx="1204" cy="136" r="1.0" fill="#2a3b52" opacity="0.18"/><circle cx="75" cy="295" r="0.6" fill="#2a3b52" opacity="0.33"/><circle cx="509" cy="352" r="0.8" fill="#2a3b52" opacity="0.17"/><circle cx="575" cy="211" r="0.6" fill="#2a3b52" opacity="0.35"/><circle cx="1106" cy="107" r="0.8" fill="#2a3b52" opacity="0.40"/><circle cx="874" cy="146" r="0.6" fill="#2a3b52" opacity="0.19"/><circle cx="226" cy="89" r="0.6" fill="#2a3b52" opacity="0.15"/><circle cx="1064" cy="70" r="0.8" fill="#2a3b52" opacity="0.15"/><circle cx="536" cy="142" r="1.0" fill="#2a3b52" opacity="0.23"/><circle cx="161" cy="330" r="1.0" fill="#2a3b52" opacity="0.31"/><circle cx="947" cy="175" r="1.0" fill="#2a3b52" opacity="0.35"/><circle cx="502" cy="153" r="0.6" fill="#2a3b52" opacity="0.27"/><circle cx="513" cy="73" r="0.6" fill="#2a3b52" opacity="0.26"/><circle cx="141" cy="231" r="0.6" fill="#2a3b52" opacity="0.15"/><circle cx="194" cy="39" r="0.8" fill="#2a3b52" opacity="0.30"/><circle cx="90" cy="80" r="0.8" fill="#2a3b52" opacity="0.19"/><circle cx="323" cy="133" r="0.8" fill="#2a3b52" opacity="0.27"/><circle cx="148" cy="187" r="0.8" fill="#2a3b52" opacity="0.27"/><circle cx="399" cy="55" r="1.0" fill="#2a3b52" opacity="0.24"/><circle cx="339" cy="318" r="0.6" fill="#2a3b52" opacity="0.28"/><circle cx="263" cy="366" r="0.8" fill="#2a3b52" opacity="0.19"/><circle cx="695" cy="10" r="1.0" fill="#2a3b52" opacity="0.22"/><circle cx="823" cy="35" r="0.8" fill="#2a3b52" opacity="0.28"/><circle cx="1163" cy="137" r="0.6" fill="#2a3b52" opacity="0.28"/><circle cx="997" cy="127" r="0.6" fill="#2a3b52" opacity="0.30"/><circle cx="1009" cy="291" r="0.6" fill="#2a3b52" opacity="0.35"/><circle cx="1047" cy="284" r="0.6" fill="#2a3b52" opacity="0.20"/><circle cx="631" cy="281" r="0.6" fill="#2a3b52" opacity="0.35"/><circle cx="604" cy="74" r="1.0" fill="#2a3b52" opacity="0.39"/><circle cx="572" cy="360" r="0.8" fill="#2a3b52" opacity="0.39"/><circle cx="467" cy="85" r="0.6" fill="#2a3b52" opacity="0.27"/><circle cx="432" cy="185" r="1.0" fill="#2a3b52" opacity="0.36"/><circle cx="614" cy="251" r="1.0" fill="#2a3b52" opacity="0.17"/><circle cx="846" cy="349" r="1.0" fill="#2a3b52" opacity="0.34"/><circle cx="612" cy="69" r="1.0" fill="#2a3b52" opacity="0.23"/><circle cx="1025" cy="373" r="0.8" fill="#2a3b52" opacity="0.27"/><circle cx="951" cy="33" r="0.6" fill="#2a3b52" opacity="0.19"/><circle cx="163" cy="58" r="0.8" fill="#2a3b52" opacity="0.35"/><circle cx="187" cy="317" r="0.8" fill="#2a3b52" opacity="0.31"/><circle cx="449" cy="211" r="0.6" fill="#2a3b52" opacity="0.16"/><circle cx="1023" cy="279" r="0.6" fill="#2a3b52" opacity="0.28"/><circle cx="1195" cy="167" r="0.6" fill="#2a3b52" opacity="0.36"/><circle cx="270" cy="97" r="0.8" fill="#2a3b52" opacity="0.28"/><circle cx="978" cy="125" r="1.0" fill="#2a3b52" opacity="0.25"/><circle cx="168" cy="349" r="0.8" fill="#2a3b52" opacity="0.37"/><circle cx="848" cy="313" r="1.0" fill="#2a3b52" opacity="0.26"/><circle cx="1175" cy="193" r="1.0" fill="#2a3b52" opacity="0.19"/>

<!-- lens ambient glow -->
<circle cx="322" cy="192" r="170" fill="url(#glow)"/>

<!-- backend mesh + convergence -->
<line x1="67.0" y1="85.9" x2="114.4" y2="62.0" stroke="#1f6f74" stroke-width="0.8" opacity="0.30"/><line x1="67.0" y1="85.9" x2="97.7" y2="151.2" stroke="#1f6f74" stroke-width="0.8" opacity="0.30"/><line x1="67.0" y1="85.9" x2="28.4" y2="194.3" stroke="#1f6f74" stroke-width="0.8" opacity="0.30"/><line x1="67.0" y1="85.9" x2="25.4" y2="171.8" stroke="#1f6f74" stroke-width="0.8" opacity="0.30"/><line x1="67.0" y1="85.9" x2="30.1" y2="67.6" stroke="#1f6f74" stroke-width="0.8" opacity="0.30"/><line x1="67.0" y1="85.9" x2="38.0" y2="107.9" stroke="#1f6f74" stroke-width="0.8" opacity="0.30"/><line x1="114.4" y1="62.0" x2="97.7" y2="151.2" stroke="#1f6f74" stroke-width="0.8" opacity="0.30"/><line x1="114.4" y1="62.0" x2="30.1" y2="67.6" stroke="#1f6f74" stroke-width="0.8" opacity="0.30"/><line x1="114.4" y1="62.0" x2="38.0" y2="107.9" stroke="#1f6f74" stroke-width="0.8" opacity="0.30"/><line x1="97.7" y1="151.2" x2="28.4" y2="194.3" stroke="#1f6f74" stroke-width="0.8" opacity="0.30"/><line x1="97.7" y1="151.2" x2="25.4" y2="171.8" stroke="#1f6f74" stroke-width="0.8" opacity="0.30"/><line x1="97.7" y1="151.2" x2="30.1" y2="67.6" stroke="#1f6f74" stroke-width="0.8" opacity="0.30"/><line x1="97.7" y1="151.2" x2="38.0" y2="107.9" stroke="#1f6f74" stroke-width="0.8" opacity="0.30"/><line x1="28.4" y1="194.3" x2="25.4" y2="171.8" stroke="#1f6f74" stroke-width="0.8" opacity="0.30"/><line x1="28.4" y1="194.3" x2="30.1" y2="67.6" stroke="#1f6f74" stroke-width="0.8" opacity="0.30"/><line x1="28.4" y1="194.3" x2="81.6" y2="291.4" stroke="#1f6f74" stroke-width="0.8" opacity="0.30"/><line x1="28.4" y1="194.3" x2="38.0" y2="107.9" stroke="#1f6f74" stroke-width="0.8" opacity="0.30"/><line x1="25.4" y1="171.8" x2="30.1" y2="67.6" stroke="#1f6f74" stroke-width="0.8" opacity="0.30"/><line x1="25.4" y1="171.8" x2="38.0" y2="107.9" stroke="#1f6f74" stroke-width="0.8" opacity="0.30"/><line x1="30.1" y1="67.6" x2="38.0" y2="107.9" stroke="#1f6f74" stroke-width="0.8" opacity="0.30"/><line x1="81.6" y1="291.4" x2="111.0" y2="328.1" stroke="#1f6f74" stroke-width="0.8" opacity="0.30"/>
<line x1="67.0" y1="85.9" x2="273.5" y2="215.8" stroke="url(#ray)" stroke-width="1.0" opacity="0.45"/><line x1="114.4" y1="62.0" x2="289.1" y2="234.9" stroke="url(#ray)" stroke-width="1.0" opacity="0.45"/><line x1="97.7" y1="151.2" x2="289.3" y2="234.9" stroke="url(#ray)" stroke-width="1.0" opacity="0.45"/><line x1="28.4" y1="194.3" x2="281.0" y2="227.1" stroke="url(#ray)" stroke-width="1.0" opacity="0.45"/><line x1="25.4" y1="171.8" x2="274.3" y2="217.3" stroke="url(#ray)" stroke-width="1.0" opacity="0.45"/><line x1="30.1" y1="67.6" x2="280.4" y2="226.4" stroke="url(#ray)" stroke-width="1.0" opacity="0.45"/><line x1="81.6" y1="291.4" x2="284.5" y2="230.8" stroke="url(#ray)" stroke-width="1.0" opacity="0.45"/><line x1="38.0" y1="107.9" x2="273.6" y2="216.0" stroke="url(#ray)" stroke-width="1.0" opacity="0.45"/><line x1="111.0" y1="328.1" x2="278.5" y2="224.0" stroke="url(#ray)" stroke-width="1.0" opacity="0.45"/>
<circle cx="67.0" cy="85.9" r="2.6" fill="#3ec6cf" opacity="0.85"/><circle cx="67.0" cy="85.9" r="5.6" fill="none" stroke="#3ec6cf" stroke-width="0.7" opacity="0.30"/><circle cx="114.4" cy="62.0" r="2.2" fill="#3ec6cf" opacity="0.85"/><circle cx="114.4" cy="62.0" r="5.2" fill="none" stroke="#3ec6cf" stroke-width="0.7" opacity="0.30"/><circle cx="97.7" cy="151.2" r="2.2" fill="#3ec6cf" opacity="0.85"/><circle cx="97.7" cy="151.2" r="5.2" fill="none" stroke="#3ec6cf" stroke-width="0.7" opacity="0.30"/><circle cx="28.4" cy="194.3" r="2.2" fill="#3ec6cf" opacity="0.85"/><circle cx="28.4" cy="194.3" r="5.2" fill="none" stroke="#3ec6cf" stroke-width="0.7" opacity="0.30"/><circle cx="25.4" cy="171.8" r="3.0" fill="#3ec6cf" opacity="0.85"/><circle cx="25.4" cy="171.8" r="6.0" fill="none" stroke="#3ec6cf" stroke-width="0.7" opacity="0.30"/><circle cx="30.1" cy="67.6" r="3.0" fill="#3ec6cf" opacity="0.85"/><circle cx="30.1" cy="67.6" r="6.0" fill="none" stroke="#3ec6cf" stroke-width="0.7" opacity="0.30"/><circle cx="81.6" cy="291.4" r="3.0" fill="#3ec6cf" opacity="0.85"/><circle cx="81.6" cy="291.4" r="6.0" fill="none" stroke="#3ec6cf" stroke-width="0.7" opacity="0.30"/><circle cx="38.0" cy="107.9" r="2.2" fill="#3ec6cf" opacity="0.85"/><circle cx="38.0" cy="107.9" r="5.2" fill="none" stroke="#3ec6cf" stroke-width="0.7" opacity="0.30"/><circle cx="111.0" cy="328.1" r="3.0" fill="#3ec6cf" opacity="0.85"/><circle cx="111.0" cy="328.1" r="6.0" fill="none" stroke="#3ec6cf" stroke-width="0.7" opacity="0.30"/>

<!-- focused beam to wordmark -->
<path d="M 352.0,148 L 980,42 L 980,342 L 352.0,236 Z" fill="url(#beam)" opacity="0.55"/>

<!-- lens barrel rings -->
<circle cx="322" cy="192" r="138" fill="none" stroke="url(#ring)" stroke-width="2.4" opacity="0.9"/>
<circle cx="322" cy="192" r="129" fill="none" stroke="#2a8f99" stroke-width="1" opacity="0.5"/>
<circle cx="322" cy="192" r="120" fill="none" stroke="url(#ring)" stroke-width="1.6" opacity="0.85"/>

<!-- iris blades -->
<path d="M 322.0,132.0 L 374.0,162.0 L 425.9,132.0 Z" fill="url(#bladefill)" opacity="0.10"/><path d="M 374.0,162.0 L 374.0,222.0 L 425.9,252.0 Z" fill="url(#bladefill)" opacity="0.15"/><path d="M 374.0,222.0 L 322.0,252.0 L 322.0,312.0 Z" fill="url(#bladefill)" opacity="0.10"/><path d="M 322.0,252.0 L 270.0,222.0 L 218.1,252.0 Z" fill="url(#bladefill)" opacity="0.15"/><path d="M 270.0,222.0 L 270.0,162.0 L 218.1,132.0 Z" fill="url(#bladefill)" opacity="0.10"/><path d="M 270.0,162.0 L 322.0,132.0 L 322.0,72.0 Z" fill="url(#bladefill)" opacity="0.15"/>
<line x1="322.0" y1="132.0" x2="322.0" y2="72.0" stroke="url(#blade)" stroke-width="1.4" opacity="0.55"/><line x1="374.0" y1="162.0" x2="425.9" y2="132.0" stroke="url(#blade)" stroke-width="1.4" opacity="0.55"/><line x1="374.0" y1="222.0" x2="425.9" y2="252.0" stroke="url(#blade)" stroke-width="1.4" opacity="0.55"/><line x1="322.0" y1="252.0" x2="322.0" y2="312.0" stroke="url(#blade)" stroke-width="1.4" opacity="0.55"/><line x1="270.0" y1="222.0" x2="218.1" y2="252.0" stroke="url(#blade)" stroke-width="1.4" opacity="0.55"/><line x1="270.0" y1="162.0" x2="218.1" y2="132.0" stroke="url(#blade)" stroke-width="1.4" opacity="0.55"/>

<!-- aperture opening -->
<path d="M 322.0,132.0 L 374.0,162.0 L 374.0,222.0 L 322.0,252.0 L 270.0,222.0 L 270.0,162.0 Z" fill="#060b12" stroke="url(#blade)" stroke-width="2" opacity="0.95"/>
<path d="M 322.0,132.0 L 374.0,162.0 L 374.0,222.0 L 322.0,252.0 L 270.0,222.0 L 270.0,162.0 Z" fill="none" stroke="#7df0ff" stroke-width="0.8" opacity="0.6" filter="url(#soft)"/>

<!-- focal point + crosshair (locate) -->
<circle cx="322" cy="192" r="30" fill="url(#focal)"/>
<circle cx="322" cy="192" r="4.5" fill="#ffffff"/>
<line x1="282" y1="192" x2="308" y2="192" stroke="#bff6ff" stroke-width="1.4" opacity="0.9"/>
<line x1="336" y1="192" x2="362" y2="192" stroke="#bff6ff" stroke-width="1.4" opacity="0.9"/>
<line x1="322" y1="152" x2="322" y2="178" stroke="#bff6ff" stroke-width="1.4" opacity="0.9"/>
<line x1="322" y1="206" x2="322" y2="232" stroke="#bff6ff" stroke-width="1.4" opacity="0.9"/>

<!-- wordmark -->
<text x="560" y="178" font-family="DejaVu Sans" font-weight="bold" font-size="104" letter-spacing="10" fill="url(#wm)">LENS</text>
<text x="565" y="220" font-family="DejaVu Sans" font-size="19" letter-spacing="2.7" fill="#5fe3e8">LOCATE ENDPOINTS ACROSS NETWORK SYSTEMS</text>
<text x="564" y="258" font-family="DejaVu Sans" font-size="18" letter-spacing="0.3" fill="#8b9cb0">Unified endpoint lookup across multiple network backends</text>

<!-- NetBox plugin badge -->
<rect x="564" y="276" width="158" height="30" rx="15" fill="none" stroke="#2dd4bf" stroke-width="1.3" opacity="0.85"/>
<circle cx="585" cy="291" r="4" fill="#2dd4bf"/>
<text x="598" y="296" font-family="DejaVu Sans" font-size="15" letter-spacing="1" fill="#9fe9f0">NetBox plugin</text>
</svg>